<mxfile host="app.diagrams.net" agent="Mozilla/5.0 (Windows NT 10.0; Win64; x64) AppleWebKit/537.36 (KHTML, like Gecko) Chrome/131.0.0.0 Safari/537.36 Edg/131.0.0.0" version="24.8.6">
  <diagram name="Página-1" id="BCHF-5Q5EMjY2CzNp5F7">
    <mxGraphModel dx="1042" dy="581" grid="0" gridSize="10" guides="1" tooltips="1" connect="1" arrows="1" fold="1" page="1" pageScale="1" pageWidth="700" pageHeight="1000" math="0" shadow="0">
      <root>
        <mxCell id="0" />
        <mxCell id="1" parent="0" />
        <mxCell id="UvF5SmiHXKKENpEFAL-r-3" value="&lt;div style=&quot;&quot;&gt;&lt;span class=&quot;notion-enable-hover&quot; data-token-index=&quot;0&quot; style=&quot;font-weight: 600; font-size: 33px;&quot;&gt;Ayuda n&lt;/span&gt;&lt;/div&gt;" style="text;html=1;align=center;verticalAlign=middle;whiteSpace=wrap;rounded=0;" parent="1" vertex="1">
          <mxGeometry x="152" y="8" width="392" height="167" as="geometry" />
        </mxCell>
        <mxCell id="UvF5SmiHXKKENpEFAL-r-7" value="&lt;font style=&quot;font-size: 24px;&quot;&gt;Jugar&lt;/font&gt;" style="rounded=0;whiteSpace=wrap;html=1;" parent="1" vertex="1">
          <mxGeometry x="288" y="884" width="120" height="80" as="geometry" />
        </mxCell>
        <mxCell id="u7QEts4ljpoHcqYf52Yu-5" value="&lt;span style=&quot;font-size: 20px;&quot;&gt;Herramienta&amp;nbsp;&lt;/span&gt;" style="ellipse;whiteSpace=wrap;html=1;rounded=0;strokeColor=default;align=center;verticalAlign=middle;fontFamily=Helvetica;fontSize=12;fontColor=default;fillColor=default;" vertex="1" parent="1">
          <mxGeometry x="519" y="295" width="153" height="100" as="geometry" />
        </mxCell>
        <mxCell id="u7QEts4ljpoHcqYf52Yu-16" value="Paso 1 :" style="text;html=1;align=center;verticalAlign=middle;resizable=0;points=[];autosize=1;strokeColor=none;fillColor=none;fontFamily=Helvetica;fontSize=23;fontColor=default;" vertex="1" parent="1">
          <mxGeometry x="68" y="308" width="102" height="40" as="geometry" />
        </mxCell>
        <mxCell id="u7QEts4ljpoHcqYf52Yu-17" value="Paso 2 :" style="text;html=1;align=center;verticalAlign=middle;resizable=0;points=[];autosize=1;strokeColor=none;fillColor=none;fontFamily=Helvetica;fontSize=23;fontColor=default;" vertex="1" parent="1">
          <mxGeometry x="68" y="460" width="102" height="40" as="geometry" />
        </mxCell>
        <mxCell id="u7QEts4ljpoHcqYf52Yu-18" value="Paso 3&lt;span data-darkreader-inline-color=&quot;&quot; data-darkreader-inline-bgcolor=&quot;&quot; style=&quot;background-color: initial; color: rgb(0, 0, 0); --darkreader-inline-bgcolor: initial; --darkreader-inline-color: #e8e6e3;&quot;&gt;&amp;nbsp;:&lt;/span&gt;" style="text;html=1;align=center;verticalAlign=middle;resizable=0;points=[];autosize=1;strokeColor=none;fillColor=none;fontFamily=Helvetica;fontSize=23;fontColor=default;" vertex="1" parent="1">
          <mxGeometry x="68" y="598" width="102" height="40" as="geometry" />
        </mxCell>
        <mxCell id="u7QEts4ljpoHcqYf52Yu-19" value="Paso N :" style="text;html=1;align=center;verticalAlign=middle;resizable=0;points=[];autosize=1;strokeColor=none;fillColor=none;fontFamily=Helvetica;fontSize=23;fontColor=default;" vertex="1" parent="1">
          <mxGeometry x="66" y="736" width="106" height="40" as="geometry" />
        </mxCell>
        <mxCell id="u7QEts4ljpoHcqYf52Yu-21" value="&lt;font style=&quot;font-size: 20px;&quot;&gt;Parte del caballo&lt;/font&gt;" style="rounded=1;whiteSpace=wrap;html=1;strokeColor=default;align=center;verticalAlign=middle;fontFamily=Helvetica;fontSize=12;fontColor=default;fillColor=default;" vertex="1" parent="1">
          <mxGeometry x="544" y="500" width="120" height="60" as="geometry" />
        </mxCell>
        <mxCell id="u7QEts4ljpoHcqYf52Yu-23" value="&lt;h1 style=&quot;margin-top: 0px;&quot;&gt;Resumen de la secuencia n&lt;/h1&gt;" style="text;html=1;whiteSpace=wrap;overflow=hidden;rounded=0;fontFamily=Helvetica;fontSize=12;fontColor=default;" vertex="1" parent="1">
          <mxGeometry x="197" y="179" width="363" height="161" as="geometry" />
        </mxCell>
        <mxCell id="u7QEts4ljpoHcqYf52Yu-24" value="&lt;font style=&quot;font-size: 14px;&quot;&gt;Descripción en texto de la parte 1 de la secuencia n&lt;/font&gt;" style="text;html=1;align=center;verticalAlign=middle;whiteSpace=wrap;rounded=0;fontFamily=Helvetica;fontSize=12;fontColor=default;" vertex="1" parent="1">
          <mxGeometry x="176" y="306" width="235" height="64" as="geometry" />
        </mxCell>
        <mxCell id="u7QEts4ljpoHcqYf52Yu-26" value="&lt;font style=&quot;font-size: 14px;&quot;&gt;Descripción en texto de la parte 1 de la secuencia n&lt;/font&gt;" style="text;html=1;align=center;verticalAlign=middle;whiteSpace=wrap;rounded=0;fontFamily=Helvetica;fontSize=12;fontColor=default;" vertex="1" parent="1">
          <mxGeometry x="182" y="460" width="235" height="64" as="geometry" />
        </mxCell>
        <mxCell id="u7QEts4ljpoHcqYf52Yu-27" value="&lt;font style=&quot;font-size: 14px;&quot;&gt;Descripción en texto de la parte 2 de la secuencia n&lt;/font&gt;" style="text;html=1;align=center;verticalAlign=middle;whiteSpace=wrap;rounded=0;fontFamily=Helvetica;fontSize=12;fontColor=default;" vertex="1" parent="1">
          <mxGeometry x="182" y="598" width="235" height="64" as="geometry" />
        </mxCell>
        <mxCell id="u7QEts4ljpoHcqYf52Yu-28" value="&lt;font style=&quot;font-size: 14px;&quot;&gt;Descripción en texto de la parte n de la secuencia n&lt;/font&gt;" style="text;html=1;align=center;verticalAlign=middle;whiteSpace=wrap;rounded=0;fontFamily=Helvetica;fontSize=12;fontColor=default;" vertex="1" parent="1">
          <mxGeometry x="188" y="736" width="235" height="64" as="geometry" />
        </mxCell>
      </root>
    </mxGraphModel>
  </diagram>
</mxfile>
